<?xml version="1.0" standalone="no"?>
<!DOCTYPE svg PUBLIC "-//W3C//DTD SVG 20010904//EN"
 "http://www.w3.org/TR/2001/REC-SVG-20010904/DTD/svg10.dtd">
<svg version="1.0" xmlns="http://www.w3.org/2000/svg"
 width="260.000000pt" height="260.000000pt" viewBox="0 0 260.000000 260.000000"
 preserveAspectRatio="xMidYMid meet">
<metadata>
Created by potrace 1.11, written by Peter Selinger 2001-2013
</metadata>
<g transform="translate(0.000000,260.000000) scale(0.100000,-0.100000)"
fill="#000000" stroke="none">
<path d="M858 1691 c-81 -26 -147 -81 -204 -167 -26 -40 -49 -72 -50 -71 -2 1
-8 43 -14 92 -18 152 2 135 -165 135 l-145 0 0 -65 0 -65 85 0 85 0 0 -395 0
-395 -85 0 -85 0 0 -65 0 -65 275 0 275 0 0 65 0 65 -110 0 -110 0 0 218 c0
203 2 221 24 284 61 174 161 273 294 292 l42 6 0 -115 0 -115 68 0 69 0 11
171 c6 95 9 175 7 180 -8 12 -101 29 -158 28 -29 0 -78 -8 -109 -18z"/>
<path d="M2058 1691 c-81 -26 -147 -81 -204 -167 -26 -40 -49 -72 -50 -71 -2
1 -8 43 -14 92 -18 152 2 135 -165 135 l-145 0 0 -65 0 -65 85 0 85 0 0 -395
0 -395 -85 0 -85 0 0 -65 0 -65 275 0 275 0 0 65 0 65 -110 0 -110 0 0 218 c0
203 2 221 24 284 61 174 161 273 294 292 l42 6 0 -115 0 -115 68 0 69 0 11
171 c6 95 9 175 7 180 -8 12 -101 29 -158 28 -29 0 -78 -8 -109 -18z"/>
</g>
</svg>
